<?xml version="1.0" encoding="UTF-8" standalone="no"?>
<!-- Created with Inkscape (http://www.inkscape.org/) -->

<svg
   xmlns:dc="http://purl.org/dc/elements/1.1/"
   xmlns:cc="http://creativecommons.org/ns#"
   xmlns:rdf="http://www.w3.org/1999/02/22-rdf-syntax-ns#"
   xmlns:svg="http://www.w3.org/2000/svg"
   xmlns="http://www.w3.org/2000/svg"
   version="1.1"
   width="401.875"
   height="401.875"
   viewBox="0 0 401.875 401.875"
   id="Layer_1"
   xml:space="preserve"
   style="overflow:visible">
<metadata
   id="metadata11">
<rdf:RDF>
<cc:Work
   rdf:about=""><dc:format>image/svg+xml</dc:format><dc:type
     rdf:resource="http://purl.org/dc/dcmitype/StillImage" /><dc:title></dc:title></cc:Work></rdf:RDF></metadata><defs
   id="defs9" />
<path
   d="m 0.9375,0.9375 h 400 v 400 h -400 v -400 z"
   id="path5"
   style="fill:none;stroke:#000000;stroke-linejoin:round" />
<path
   d="m 0.9375,0.9375 400,400 m -258.578,-258.578 58.578,-58.579 m 0,0 V 0.9375 m 58.578,258.578 58.579,-58.578 m 0,0 h 82.843 m -400,0 h 82.843 m 0,0 117.157,117.157 m 58.578,-175.735 -58.578,58.578 m 0,117.157 v 82.843 m -200,0 141.422,-141.422"
   id="path7"
   style="fill:none;stroke:#0000ff;stroke-width:2;stroke-dasharray:18, 4, 3, 4, 3, 4" />
<path
   d="m 400.9375,0.9375 -82.843,200 m 0,0 82.843,200 m 0,0 -200,-82.843 m 0,0 -200,82.843 m 0,0 82.843,-200 m 0,0 -82.843,-200 m 0,0 200,82.843 m 0,0 200,-82.843 m 0,0 -141.422,141.422 m -58.578,58.578 -58.578,58.578 m 117.156,0 -58.578,58.579 m 0,0 V 83.7805 m 0,0 117.157,117.157 m 0,0 H 83.7805 m 0,0 58.579,-58.578"
   id="path9"
   style="fill:none;stroke:#ff0000;stroke-width:2;stroke-dasharray:9, 9, 9, 9" />
</svg>